<svg width="670" height="670" viewBox="0 0 670 670" fill="none" xmlns="http://www.w3.org/2000/svg">
<mask id="mask0_1675_18628" style="mask-type:alpha" maskUnits="userSpaceOnUse" x="0" y="0" width="670" height="670">
<path d="M670 335C670 520.015 520.015 670 335 670C149.985 670 0 520.015 0 335C0 149.985 149.985 0 335 0C520.015 0 670 149.985 670 335Z" fill="#5B5B5B"/>
</mask>
<g mask="url(#mask0_1675_18628)">
<path opacity="0.7" fill-rule="evenodd" clip-rule="evenodd" d="M665 335.511C665 335.341 665 335.17 665 335C665 334.83 665 334.659 665 334.489L721 334.404L721 335C721 335.199 721 335.397 721 335.596L665 335.511ZM664.581 318.233L720.511 315.434C720.492 315.037 720.471 314.641 720.45 314.245L664.529 317.215C664.547 317.554 664.564 317.893 664.581 318.233ZM663.27 301.003L718.979 295.302C718.939 294.906 718.898 294.51 718.856 294.115L663.165 299.988C663.2 300.326 663.235 300.665 663.27 301.003ZM661.062 283.863L716.396 275.255C716.335 274.862 716.273 274.469 716.211 274.076L660.904 282.856C660.957 283.192 661.01 283.527 661.062 283.863ZM657.958 266.863L712.763 255.359C712.681 254.969 712.599 254.58 712.516 254.191L657.747 265.866C657.818 266.198 657.888 266.531 657.958 266.863ZM653.963 250.051L708.086 235.674C707.984 235.289 707.881 234.905 707.778 234.521L653.7 249.067C653.788 249.395 653.876 249.723 653.963 250.051ZM649.088 233.473L702.377 216.26C702.254 215.882 702.132 215.504 702.008 215.127L648.773 232.505C648.878 232.827 648.983 233.15 649.088 233.473ZM643.344 217.176L695.651 197.176C695.51 196.806 695.367 196.435 695.224 196.064L642.98 216.226C643.102 216.543 643.223 216.859 643.344 217.176ZM636.75 201.205L687.931 178.478C687.77 178.115 687.609 177.753 687.446 177.39L636.336 200.276C636.475 200.585 636.613 200.895 636.75 201.205ZM629.325 185.603L679.24 160.217L679.017 159.778C678.911 159.571 678.805 159.364 678.699 159.157L628.863 184.698C629.017 185 629.171 185.301 629.325 185.603ZM621.091 170.414L669.605 142.443C669.407 142.1 669.209 141.757 669.01 141.414L620.582 169.534C620.752 169.827 620.922 170.12 621.091 170.414ZM612.072 155.676L659.056 125.205C658.841 124.873 658.625 124.541 658.408 124.209L611.518 154.825C611.703 155.108 611.888 155.392 612.072 155.676ZM602.295 141.431L647.624 108.548C647.391 108.227 647.158 107.907 646.925 107.587L601.697 140.609C601.897 140.883 602.096 141.157 602.295 141.431ZM591.788 127.715L635.341 92.5135C635.092 92.2056 634.843 91.898 634.593 91.5909L591.148 126.925C591.362 127.188 591.575 127.451 591.788 127.715ZM580.581 114.564L622.243 77.1435C621.978 76.8489 621.713 76.5548 621.448 76.2611L579.901 113.809C580.128 114.06 580.355 114.312 580.581 114.564ZM568.704 102.014L608.363 62.477C608.083 62.1966 607.803 61.9166 607.523 61.6371L567.986 101.296C568.225 101.535 568.465 101.774 568.704 102.014ZM556.191 90.0992L593.739 48.5523C593.445 48.2869 593.151 48.0219 592.856 47.7573L555.436 89.419C555.688 89.6453 555.939 89.8721 556.191 90.0992ZM543.075 78.8517L578.409 35.4066C578.102 35.1568 577.794 34.9074 577.486 34.6586L542.285 78.2117C542.549 78.4247 542.812 78.638 543.075 78.8517ZM529.391 68.3028L562.413 23.0751C562.093 22.8416 561.773 22.6086 561.452 22.376L528.569 67.7048C528.843 67.9038 529.117 68.1031 529.391 68.3028ZM515.175 58.4822L545.791 11.592C545.459 11.3754 545.127 11.1594 544.794 10.9438L514.323 57.9279C514.608 58.1123 514.892 58.297 515.175 58.4822ZM500.466 49.4182L528.586 0.990097C528.243 0.791096 527.9 0.592602 527.557 0.394623L499.586 48.9091C499.88 49.0784 500.173 49.248 500.466 49.4182ZM485.302 41.1371L510.843 -8.69922C510.49 -8.88007 510.137 -9.0604 509.783 -9.2402L484.396 40.6749C484.699 40.8285 485 40.9826 485.302 41.1371ZM469.724 33.6637L492.609 -17.4464C492.247 -17.6086 491.885 -17.7702 491.522 -17.9313L468.795 33.2496C469.105 33.3872 469.414 33.5252 469.724 33.6637ZM453.774 27.0203L473.935 -25.2243C473.565 -25.3673 473.194 -25.5096 472.823 -25.6515L452.824 26.6555C453.141 26.7767 453.457 26.8983 453.774 27.0203ZM437.495 21.2268L454.873 -32.0085C454.496 -32.1318 454.118 -32.2545 453.74 -32.3766L436.527 20.9124C436.85 21.0167 437.173 21.1215 437.495 21.2268ZM420.933 16.2999L435.479 -37.7781C435.095 -37.8813 434.711 -37.984 434.326 -38.0861L419.949 16.0369C420.277 16.1241 420.605 16.2118 420.933 16.2999ZM404.134 12.2532L415.809 -42.5162C415.42 -42.5991 415.031 -42.6815 414.641 -42.7632L403.137 12.0423C403.469 12.1121 403.802 12.1824 404.134 12.2532ZM387.144 9.09648L395.924 -46.211C395.531 -46.2734 395.138 -46.3351 394.745 -46.3963L386.137 8.93814C386.473 8.99041 386.808 9.04319 387.144 9.09648ZM370.012 6.83534L375.885 -48.8558C375.746 -48.8705 375.607 -48.8851 375.468 -48.8996C375.211 -48.9264 374.955 -48.9529 374.698 -48.9792L368.997 6.72985C369.335 6.7645 369.674 6.79967 370.012 6.83534ZM352.785 5.47108L355.755 -50.4501C355.546 -50.4612 355.337 -50.4721 355.129 -50.4829C354.941 -50.4925 354.754 -50.502 354.566 -50.5114L351.767 5.41858C352.107 5.43557 352.446 5.45307 352.785 5.47108ZM335.511 5.00039L335.596 -50.9995C335.397 -50.9999 335.199 -51 335 -51C334.801 -51 334.603 -50.9999 334.404 -50.9995L334.489 5.00039C334.659 5.00013 334.83 5 335 5C335.17 5 335.341 5.00013 335.511 5.00039ZM318.233 5.41859L315.434 -50.5114C315.037 -50.4916 314.641 -50.4711 314.245 -50.4501L317.215 5.47109C317.554 5.45308 317.893 5.43557 318.233 5.41859ZM301.003 6.72987L295.302 -48.9792C294.906 -48.9386 294.51 -48.8975 294.115 -48.8558L299.988 6.83535C300.326 6.79968 300.665 6.76452 301.003 6.72987ZM283.863 8.93815L275.255 -46.3963C274.862 -46.3351 274.469 -46.2733 274.076 -46.211L282.856 9.0965C283.192 9.04321 283.527 8.99043 283.863 8.93815ZM266.863 12.0423L255.359 -42.7632C254.969 -42.6814 254.58 -42.5991 254.191 -42.5162L265.866 12.2533C266.198 12.1824 266.531 12.1121 266.863 12.0423ZM250.051 16.0369L235.674 -38.086C235.289 -37.984 234.905 -37.8813 234.521 -37.7781L249.067 16.2999C249.395 16.2118 249.723 16.1241 250.051 16.0369ZM233.473 20.9125L216.26 -32.3766C215.882 -32.2545 215.504 -32.1318 215.127 -32.0085L232.505 21.2268C232.827 21.1216 233.15 21.0168 233.473 20.9125ZM217.176 26.6556L197.176 -25.6514C196.806 -25.5096 196.435 -25.3672 196.064 -25.2243L216.226 27.0204C216.543 26.8983 216.859 26.7767 217.176 26.6556ZM201.205 33.2496L178.478 -17.9312C178.115 -17.7701 177.753 -17.6085 177.39 -17.4464L200.276 33.6638C200.585 33.5252 200.895 33.3872 201.205 33.2496ZM185.603 40.6749L160.217 -9.24013C159.863 -9.06033 159.51 -8.88001 159.157 -8.69916L184.698 41.1372C185 40.9826 185.301 40.8285 185.603 40.6749ZM170.414 48.9092L142.443 0.394688C142.1 0.592667 141.757 0.791157 141.414 0.990158L169.534 49.4182C169.827 49.2481 170.12 49.0784 170.414 48.9092ZM155.676 57.928L125.205 10.9439C124.873 11.1594 124.541 11.3755 124.209 11.5921L154.825 58.4823C155.108 58.2971 155.392 58.1124 155.676 57.928ZM141.431 67.7049L108.548 22.3761C108.227 22.6087 107.907 22.8417 107.587 23.0752L140.609 68.3029C140.883 68.1031 141.157 67.9038 141.431 67.7049ZM127.715 78.2118L92.5135 34.6586C92.2056 34.9075 91.898 35.1569 91.5909 35.4067L126.925 78.8518C127.188 78.6381 127.451 78.4247 127.715 78.2118ZM114.564 89.4191L77.1435 47.7574C76.8489 48.022 76.5548 48.287 76.2611 48.5524L113.809 90.0993C114.06 89.8722 114.312 89.6454 114.564 89.4191ZM102.014 101.296L62.477 61.6372C62.1966 61.9168 61.9166 62.1967 61.6371 62.4772L101.296 102.014C101.535 101.775 101.774 101.535 102.014 101.296ZM90.0992 113.809L48.5523 76.2612C48.2869 76.5549 48.0219 76.849 47.7573 77.1436L89.419 114.564C89.6453 114.312 89.8721 114.061 90.0992 113.809ZM78.8517 126.925L35.4066 91.591C35.1568 91.8981 34.9074 92.2057 34.6586 92.5136L78.2117 127.715C78.4246 127.451 78.638 127.188 78.8517 126.925ZM68.3028 140.609L23.0751 107.587C22.8416 107.907 22.6086 108.227 22.376 108.548L67.7048 141.431C67.9037 141.157 68.1031 140.883 68.3028 140.609ZM58.4822 154.825L11.592 124.209C11.3754 124.541 11.1594 124.873 10.9438 125.206L57.9279 155.677C58.1123 155.392 58.297 155.108 58.4822 154.825ZM49.4182 169.534L0.990097 141.414C0.791096 141.757 0.592602 142.1 0.394623 142.443L48.9091 170.414C49.0784 170.12 49.248 169.827 49.4182 169.534ZM41.1371 184.698L-8.69922 159.157C-8.88007 159.51 -9.0604 159.863 -9.2402 160.217L40.6749 185.604C40.8285 185.301 40.9826 185 41.1371 184.698ZM33.6637 200.276L-17.4464 177.391C-17.6086 177.753 -17.7702 178.115 -17.9313 178.478L33.2496 201.205C33.3871 200.895 33.5252 200.586 33.6637 200.276ZM27.0203 216.226L-25.2243 196.065C-25.3673 196.435 -25.5096 196.806 -25.6515 197.177L26.6555 217.176C26.7767 216.859 26.8983 216.543 27.0203 216.226ZM21.2268 232.505L-32.0085 215.127C-32.1318 215.504 -32.2545 215.882 -32.3766 216.26L20.9124 233.473C21.0167 233.15 21.1215 232.827 21.2268 232.505ZM16.2999 249.067L-37.7781 234.521C-37.8813 234.905 -37.984 235.289 -38.0861 235.674L16.0369 250.051C16.1241 249.723 16.2118 249.395 16.2999 249.067ZM12.2532 265.866L-42.5162 254.191C-42.5991 254.58 -42.6815 254.969 -42.7632 255.359L12.0423 266.863C12.1121 266.531 12.1824 266.198 12.2532 265.866ZM9.09648 282.856L-46.211 274.076C-46.2734 274.469 -46.3351 274.862 -46.3963 275.255L8.93814 283.863C8.99041 283.527 9.04319 283.192 9.09648 282.856ZM6.83534 299.988L-48.8558 294.115C-48.8975 294.511 -48.9387 294.906 -48.9792 295.302L6.72985 301.003C6.7645 300.665 6.79967 300.326 6.83534 299.988ZM5.47108 317.215L-50.4501 314.245C-50.4711 314.641 -50.4916 315.038 -50.5114 315.434L5.41858 318.233C5.43557 317.893 5.45307 317.554 5.47108 317.215ZM5.00039 334.489C5.00013 334.659 5 334.83 5 335C5 335.17 5.00013 335.341 5.00039 335.511L-50.9995 335.596C-50.9999 335.397 -51 335.199 -51 335C-51 334.801 -50.9999 334.603 -50.9995 334.404L5.00039 334.489ZM5.41859 351.767L-50.5114 354.566C-50.4916 354.963 -50.4711 355.359 -50.4501 355.755L5.47109 352.785C5.45308 352.446 5.43557 352.107 5.41859 351.767ZM6.72987 368.997L-48.9792 374.698C-48.9386 375.094 -48.8975 375.49 -48.8558 375.885L6.83535 370.012C6.79968 369.674 6.76452 369.335 6.72987 368.997ZM8.93815 386.137L-46.3963 394.745C-46.3351 395.138 -46.2733 395.531 -46.211 395.924L9.0965 387.144C9.04321 386.808 8.99043 386.473 8.93815 386.137ZM12.0423 403.137L-42.7632 414.641C-42.6814 415.031 -42.5991 415.42 -42.5162 415.809L12.2533 404.134C12.1824 403.802 12.1121 403.469 12.0423 403.137ZM16.0369 419.949L-38.086 434.326C-37.984 434.711 -37.8813 435.095 -37.7781 435.479L16.2999 420.933C16.2118 420.605 16.1241 420.277 16.0369 419.949ZM20.9125 436.527L-32.3766 453.74C-32.2545 454.118 -32.1318 454.496 -32.0085 454.873L21.2268 437.495C21.1215 437.173 21.0168 436.85 20.9125 436.527ZM26.6556 452.824L-25.6514 472.823C-25.5096 473.194 -25.3672 473.565 -25.2243 473.936L27.0204 453.774C26.8983 453.457 26.7767 453.141 26.6556 452.824ZM33.2496 468.795L-17.9312 491.522C-17.7701 491.885 -17.6085 492.247 -17.4464 492.61L33.6638 469.724C33.5252 469.415 33.3872 469.105 33.2496 468.795ZM40.6749 484.397L-9.24013 509.783C-9.06033 510.137 -8.88001 510.49 -8.69916 510.843L41.1372 485.302C40.9826 485 40.8285 484.699 40.6749 484.397ZM48.9092 499.586L0.394688 527.557C0.592667 527.9 0.791157 528.243 0.990158 528.586L49.4182 500.466C49.2481 500.173 49.0784 499.88 48.9092 499.586ZM57.928 514.323L10.9439 544.795C11.1594 545.127 11.3755 545.459 11.5921 545.791L58.4823 515.175C58.2971 514.892 58.1124 514.608 57.928 514.323ZM67.7049 528.569L22.3761 561.452C22.6087 561.773 22.8417 562.093 23.0752 562.413L68.3029 529.391C68.1031 529.117 67.9038 528.843 67.7049 528.569ZM78.2118 542.285L34.6586 577.487C34.7416 577.589 34.8246 577.692 34.9077 577.794C35.0738 577.999 35.2402 578.204 35.4067 578.409L78.8518 543.075C78.638 542.812 78.4247 542.549 78.2118 542.285ZM89.4191 555.436L47.7574 592.857C48.022 593.151 48.287 593.445 48.5524 593.739L90.0993 556.191C89.8722 555.94 89.6454 555.688 89.4191 555.436ZM101.296 567.986L61.6372 607.523C61.9168 607.803 62.1967 608.083 62.4772 608.363L102.014 568.704C101.775 568.465 101.535 568.226 101.296 567.986ZM113.809 579.901L76.2612 621.448C76.5549 621.713 76.849 621.978 77.1436 622.243L114.564 580.581C114.312 580.355 114.061 580.128 113.809 579.901ZM126.925 591.148L91.591 634.593C91.8981 634.843 92.2057 635.093 92.5136 635.341L127.715 591.788C127.451 591.575 127.188 591.362 126.925 591.148ZM140.609 601.697L107.587 646.925C107.907 647.158 108.227 647.391 108.548 647.624L141.431 602.295C141.157 602.096 140.883 601.897 140.609 601.697ZM154.825 611.518L124.209 658.408C124.541 658.625 124.873 658.841 125.206 659.056L155.677 612.072C155.392 611.888 155.108 611.703 154.825 611.518ZM169.534 620.582L141.414 669.01C141.757 669.209 142.1 669.407 142.443 669.605L170.414 621.091C170.12 620.922 169.827 620.752 169.534 620.582ZM184.698 628.863L159.157 678.699C159.51 678.88 159.863 679.06 160.217 679.24L185.604 629.325C185.301 629.172 185 629.017 184.698 628.863ZM200.276 636.336L177.391 687.446C177.753 687.609 178.115 687.77 178.478 687.931L201.205 636.75C200.895 636.613 200.586 636.475 200.276 636.336ZM216.226 642.98L196.065 695.224C196.435 695.367 196.806 695.51 197.177 695.651L217.176 643.344C216.859 643.223 216.543 643.102 216.226 642.98ZM232.505 648.773L215.127 702.008C215.504 702.132 215.882 702.255 216.26 702.377L233.473 649.088C233.15 648.983 232.827 648.878 232.505 648.773ZM249.067 653.7L234.521 707.778L234.964 707.897C235.201 707.96 235.437 708.023 235.674 708.086L250.051 653.963C249.723 653.876 249.395 653.788 249.067 653.7ZM265.866 657.747L254.191 712.516C254.58 712.599 254.969 712.681 255.359 712.763L266.863 657.958C266.531 657.888 266.198 657.818 265.866 657.747ZM282.856 660.904L274.076 716.211C274.469 716.273 274.862 716.335 275.255 716.396L283.863 661.062C283.527 661.01 283.192 660.957 282.856 660.904ZM299.988 663.165L294.115 718.856C294.511 718.898 294.906 718.939 295.302 718.979L301.003 663.27C300.665 663.235 300.326 663.2 299.988 663.165ZM317.215 664.529L314.245 720.45C314.641 720.471 315.038 720.492 315.434 720.511L318.233 664.581C317.893 664.564 317.554 664.547 317.215 664.529ZM334.489 665L334.404 721C334.603 721 334.801 721 335 721L335.596 721L335.511 665C335.341 665 335.17 665 335 665C334.83 665 334.659 665 334.489 665ZM351.767 664.581L354.566 720.511C354.751 720.502 354.936 720.493 355.121 720.483C355.332 720.472 355.544 720.461 355.755 720.45L352.785 664.529C352.446 664.547 352.107 664.564 351.767 664.581ZM368.997 663.27L374.698 718.979C375.094 718.939 375.49 718.898 375.885 718.856L370.012 663.165C369.674 663.2 369.335 663.235 368.997 663.27ZM386.137 661.062L394.745 716.396C395.138 716.335 395.531 716.273 395.924 716.211L387.144 660.904C386.808 660.957 386.473 661.01 386.137 661.062ZM403.137 657.958L414.641 712.763C414.823 712.725 415.004 712.687 415.185 712.649C415.393 712.605 415.601 712.561 415.809 712.516L404.134 657.747C403.802 657.818 403.469 657.888 403.137 657.958ZM419.949 653.963L434.326 708.086C434.711 707.984 435.095 707.881 435.479 707.778L420.933 653.7C420.605 653.788 420.277 653.876 419.949 653.963ZM436.527 649.088L453.74 702.377C454.118 702.254 454.496 702.132 454.873 702.008L437.495 648.773C437.173 648.878 436.85 648.983 436.527 649.088ZM452.824 643.344L472.823 695.651C472.983 695.59 473.143 695.529 473.303 695.468C473.514 695.387 473.725 695.306 473.936 695.224L453.774 642.98C453.457 643.102 453.141 643.223 452.824 643.344ZM468.795 636.75L491.522 687.931C491.885 687.77 492.247 687.609 492.61 687.446L469.724 636.336C469.415 636.475 469.105 636.613 468.795 636.75ZM484.397 629.325L509.783 679.24C510.137 679.06 510.49 678.88 510.843 678.699L485.302 628.863C485 629.017 484.699 629.171 484.397 629.325ZM499.586 621.091L527.557 669.605C527.9 669.407 528.243 669.209 528.586 669.01L500.466 620.582C500.173 620.752 499.88 620.922 499.586 621.091ZM514.323 612.072L544.795 659.056C545.127 658.841 545.459 658.625 545.791 658.408L515.175 611.518C514.892 611.703 514.608 611.888 514.323 612.072ZM528.569 602.295L561.452 647.624C561.578 647.532 561.705 647.441 561.831 647.349C562.025 647.208 562.219 647.066 562.413 646.925L529.391 601.697C529.117 601.897 528.843 602.096 528.569 602.295ZM542.285 591.788L577.487 635.341C577.794 635.092 578.102 634.843 578.409 634.593L543.075 591.148C542.812 591.362 542.549 591.575 542.285 591.788ZM555.436 580.581L592.857 622.243C593.151 621.978 593.445 621.713 593.739 621.448L556.191 579.901C555.94 580.128 555.688 580.355 555.436 580.581ZM567.986 568.704L607.523 608.363C607.803 608.083 608.083 607.803 608.363 607.523L568.704 567.986C568.465 568.225 568.226 568.465 567.986 568.704ZM579.901 556.191L621.448 593.739C621.713 593.445 621.978 593.151 622.243 592.856L580.581 555.436C580.355 555.688 580.128 555.939 579.901 556.191ZM591.148 543.075L634.593 578.409C634.7 578.278 634.806 578.148 634.912 578.017C635.055 577.84 635.198 577.663 635.341 577.486L591.788 542.285C591.575 542.549 591.362 542.812 591.148 543.075ZM601.697 529.391L646.925 562.413C647.158 562.093 647.391 561.773 647.624 561.452L602.295 528.569C602.096 528.843 601.897 529.117 601.697 529.391ZM611.518 515.175L658.408 545.791C658.625 545.459 658.841 545.127 659.056 544.794L612.072 514.323C611.888 514.608 611.703 514.892 611.518 515.175ZM620.582 500.466L669.01 528.586C669.209 528.243 669.407 527.9 669.605 527.557L621.091 499.586C620.922 499.88 620.752 500.173 620.582 500.466ZM628.863 485.302L678.699 510.843C678.88 510.49 679.06 510.137 679.24 509.783L629.325 484.396C629.172 484.699 629.017 485 628.863 485.302ZM636.336 469.724L687.446 492.609C687.609 492.247 687.77 491.885 687.931 491.522L636.75 468.795C636.613 469.105 636.475 469.414 636.336 469.724ZM642.98 453.774L695.224 473.935C695.367 473.565 695.51 473.194 695.651 472.823L643.344 452.824C643.223 453.141 643.102 453.457 642.98 453.774ZM648.773 437.495L702.008 454.873C702.132 454.496 702.255 454.118 702.377 453.74L649.088 436.527C648.983 436.85 648.878 437.173 648.773 437.495ZM653.7 420.933L707.778 435.479C707.823 435.31 707.868 435.142 707.914 434.974C707.971 434.758 708.029 434.542 708.086 434.326L653.963 419.949C653.876 420.277 653.788 420.605 653.7 420.933ZM657.747 404.134L712.516 415.809C712.599 415.42 712.681 415.031 712.763 414.641L657.958 403.137C657.888 403.469 657.818 403.801 657.747 404.134ZM660.904 387.144L716.211 395.924C716.273 395.531 716.335 395.138 716.396 394.745L661.062 386.137C661.01 386.473 660.957 386.808 660.904 387.144ZM663.165 370.012L718.856 375.885C718.898 375.489 718.939 375.094 718.979 374.698L663.27 368.997C663.235 369.335 663.2 369.674 663.165 370.012ZM664.529 352.785L720.45 355.755C720.471 355.359 720.492 354.962 720.511 354.566L664.581 351.767C664.564 352.107 664.547 352.446 664.529 352.785Z" fill="#5B5B5B"/>
<path fill-rule="evenodd" clip-rule="evenodd" d="M664.998 336.284C664.999 335.856 665 335.428 665 335C665 334.572 664.999 334.144 664.998 333.716L671.997 333.69C671.998 333.945 671.999 334.2 672 334.456C672 334.637 672 334.819 672 335C672 335.437 671.999 335.874 671.997 336.31L664.998 336.284ZM621.474 171.08L627.546 167.598C627.114 166.844 626.679 166.091 626.24 165.341L620.195 168.87C620.624 169.605 621.05 170.342 621.474 171.08ZM501.13 49.8048L504.659 43.7595C503.909 43.3214 503.156 42.886 502.402 42.4536L498.92 48.526C499.658 48.9495 500.395 49.3758 501.13 49.8048ZM336.284 5.00244L336.31 -1.99751C335.874 -1.99917 335.437 -2 335 -2C334.563 -2 334.126 -1.99917 333.69 -1.99751L333.716 5.00244C334.144 5.00081 334.572 5 335 5C335.428 5 335.856 5.00082 336.284 5.00244ZM171.08 48.5261L167.598 42.4536C166.844 42.8861 166.091 43.3214 165.341 43.7595L168.87 49.8048C169.605 49.3758 170.342 48.9496 171.08 48.5261ZM49.8048 168.87L43.7595 165.341C43.3214 166.091 42.886 166.844 42.4536 167.598L48.526 171.08C48.9495 170.342 49.3758 169.605 49.8048 168.87ZM5.00244 333.716C5.00082 334.144 5 334.572 5 335C5 335.428 5.00081 335.856 5.00244 336.284L-1.99751 336.31C-1.99917 335.874 -2 335.437 -2 335C-2 334.563 -1.99917 334.126 -1.99751 333.69L5.00244 333.716ZM48.5261 498.92L42.4536 502.402C42.8861 503.156 43.3214 503.909 43.7595 504.659L49.8048 501.13C49.3758 500.395 48.9496 499.658 48.5261 498.92ZM168.87 620.195L165.341 626.24C166.091 626.679 166.844 627.114 167.598 627.546L171.08 621.474C170.342 621.051 169.605 620.624 168.87 620.195ZM333.716 664.998L333.69 671.997C334.126 671.999 334.563 672 335 672C335.437 672 335.874 671.999 336.31 671.997L336.284 664.998C335.856 664.999 335.428 665 335 665C334.572 665 334.144 664.999 333.716 664.998ZM498.92 621.474L502.402 627.546C503.156 627.114 503.909 626.679 504.659 626.24L501.13 620.195C500.395 620.624 499.658 621.05 498.92 621.474ZM620.195 501.13L626.24 504.659L626.432 504.33C626.806 503.689 627.177 503.046 627.546 502.402L621.474 498.92C621.05 499.658 620.624 500.395 620.195 501.13Z" fill="#2970FF"/>
</g>
</svg>